<svg width="16" height="16" viewBox="0 0 16 16" fill="none" xmlns="http://www.w3.org/2000/svg">
<path d="M3.99992 12H5.33325V13.3333H3.99992V12ZM7.99992 1.33334L1.33325 4.66668V13.3333H2.66659V8.00001H13.3333V13.3333H14.6666V4.66668L7.99992 1.33334ZM5.33325 6.66668H2.66659V5.33334H5.33325V6.66668ZM9.33325 6.66668H6.66659V5.33334H9.33325V6.66668ZM13.3333 6.66668H10.6666V5.33334H13.3333V6.66668ZM3.99992 9.33334H5.33325V10.6667H3.99992V9.33334ZM6.66659 9.33334H7.99992V10.6667H6.66659V9.33334ZM6.66659 12H7.99992V13.3333H6.66659V12ZM9.33325 12H10.6666V13.3333H9.33325V12Z" fill="#C9EBFF"/>
</svg>
