<svg width="16" height="16" viewBox="0 0 16 16" fill="none" xmlns="http://www.w3.org/2000/svg">
<path d="M7.99992 2.66667H3.33325C2.22659 2.66667 1.33325 3.56 1.33325 4.66667V10C1.33325 11.1067 2.22659 12 3.33325 12L2.66659 12.6667V13.3333H3.33325L4.66659 11.98L5.99992 12V8.66667H2.66659V3.98667L8.66659 4V5.33333H9.99992V4.66667C9.99992 3.56 9.10659 2.66667 7.99992 2.66667ZM3.33325 9.33333C3.69992 9.33333 3.99992 9.63333 3.99992 10C3.99992 10.3667 3.69992 10.6667 3.33325 10.6667C2.96659 10.6667 2.66659 10.3667 2.66659 10C2.66659 9.63333 2.96659 9.33333 3.33325 9.33333ZM13.7133 6.44C13.6199 6.17333 13.3666 6 13.0666 6H8.27325C7.96659 6 7.71992 6.17333 7.61992 6.44L6.66659 9.18L6.67325 12.8533C6.67325 13.1067 6.87992 13.3333 7.13325 13.3333H7.54659C7.79992 13.3333 7.99992 13.08 7.99992 12.8267V12H13.3333V12.8267C13.3333 13.08 13.5399 13.3333 13.7933 13.3333H14.1999C14.4533 13.3333 14.6599 13.1067 14.6599 12.8533L14.6666 11.94V9.18L13.7133 6.44ZM8.27325 6.66667H13.0666L13.7533 8.66667H7.58659L8.27325 6.66667ZM7.99992 10.6667C7.63325 10.6667 7.33325 10.3667 7.33325 10C7.33325 9.63333 7.63325 9.33333 7.99992 9.33333C8.36659 9.33333 8.66659 9.63333 8.66659 10C8.66659 10.3667 8.36659 10.6667 7.99992 10.6667ZM13.3333 10.6667C12.9666 10.6667 12.6666 10.3667 12.6666 10C12.6666 9.63333 12.9666 9.33333 13.3333 9.33333C13.6999 9.33333 13.9999 9.63333 13.9999 10C13.9999 10.3667 13.6999 10.6667 13.3333 10.6667Z" fill="#C9EBFF"/>
</svg>
