<svg width="16" height="16" viewBox="0 0 16 16" fill="none" xmlns="http://www.w3.org/2000/svg">
<path d="M10.6027 8.70038L9.18848 10.1146L13.1859 14.112L14.6001 12.6978L10.6027 8.70038Z" fill="#C9EBFF"/>
<path d="M11.6666 6.66667C12.9532 6.66667 13.9999 5.62 13.9999 4.33334C13.9999 3.94667 13.8932 3.58667 13.7266 3.26667L11.9266 5.06667L10.9332 4.07334L12.7332 2.27334C12.4132 2.10667 12.0532 2 11.6666 2C10.3799 2 9.33323 3.04667 9.33323 4.33334C9.33323 4.60667 9.38657 4.86667 9.47324 5.10667L8.2399 6.34L7.05324 5.15334L7.52657 4.68L6.58657 3.74L7.9999 2.32667C7.2199 1.54667 5.95324 1.54667 5.17324 2.32667L2.81324 4.68667L3.75324 5.62667H1.87324L1.3999 6.1L3.7599 8.46L4.23324 7.98667V6.1L5.17324 7.04L5.64657 6.56667L6.83324 7.75334L1.89324 12.6933L3.30657 14.1067L10.8932 6.52667C11.1332 6.61334 11.3932 6.66667 11.6666 6.66667Z" fill="#C9EBFF"/>
</svg>
