<svg width="16" height="16" viewBox="0 0 16 16" fill="none" xmlns="http://www.w3.org/2000/svg">
<path fill-rule="evenodd" clip-rule="evenodd" d="M11.645 15.5949C13.4893 15.5949 14.9844 14.0998 14.9844 12.2556C14.9844 11.8714 14.9195 11.5025 14.8001 11.159C14.7536 11.025 14.5835 10.9955 14.4855 11.0979L11.7866 13.9208C11.7051 14.0099 11.5903 14.0618 11.4691 14.0645C11.3478 14.0671 11.2308 14.0202 11.1454 13.9347L9.74423 12.6038C9.59591 12.463 9.59279 12.2276 9.73733 12.0831L10.051 11.7694C10.1953 11.6252 10.4301 11.628 10.5711 11.7756L11.469 12.7154L13.9322 10.0889C14.0048 10.0115 14.0047 9.89037 13.9273 9.81782C13.3302 9.25864 12.5276 8.91626 11.645 8.91626C9.80079 8.91626 8.30573 10.4113 8.30573 12.2556C8.30573 14.0998 9.80079 15.5949 11.645 15.5949Z" fill="#C9EBFF"/>
<path fill-rule="evenodd" clip-rule="evenodd" d="M13.1367 1.3813C13.1367 0.618429 12.5135 0 11.7446 0H6.5243L2 4.48922V13.4677C2 14.2305 2.62326 14.849 3.39209 14.849H8.03558C7.80856 14.5321 7.62204 14.1843 7.48358 13.813H3.39209C3.19988 13.813 3.04407 13.6584 3.04407 13.4677V4.83455H6.17627C6.56069 4.83455 6.87232 4.52533 6.87232 4.1439V1.03597H11.7446C11.9368 1.03597 12.0927 1.19058 12.0927 1.3813V7.81785C12.4551 7.8526 12.8049 7.93074 13.1367 8.04702V1.3813ZM4.59348 7.14471C4.59348 6.88727 4.80219 6.67856 5.05963 6.67856H10.0601C10.3176 6.67856 10.5263 6.88727 10.5263 7.14471C10.5263 7.40216 10.3176 7.61086 10.0601 7.61086H5.05963C4.80219 7.61086 4.59348 7.40216 4.59348 7.14471ZM5.05963 9.289C4.80219 9.289 4.59348 9.4977 4.59348 9.75515C4.59348 10.0126 4.80219 10.2213 5.05963 10.2213H7.46666C7.72411 10.2213 7.93281 10.0126 7.93281 9.75515C7.93281 9.4977 7.72411 9.289 7.46666 9.289H5.05963Z" fill="#C9EBFF"/>
</svg>
