<svg width="16" height="16" viewBox="0 0 16 16" fill="none" xmlns="http://www.w3.org/2000/svg">
<path d="M10.9266 6H5.07325C4.78659 6 4.53325 6.18667 4.43992 6.45333L3.33325 9.78667V14.3267C3.33325 14.52 3.48659 14.6667 3.66659 14.6667H4.33325C4.51992 14.6667 4.66659 14.52 4.66659 14.3333V13.3333H11.3333V14.3333C11.3333 14.52 11.4799 14.6667 11.6666 14.6667H12.3333C12.5199 14.6667 12.6666 14.52 12.6666 14.3333V9.79333L11.5599 6.46C11.4666 6.18667 11.2133 6 10.9266 6ZM5.18659 12C4.73325 12 4.37325 11.64 4.37325 11.1867C4.37325 10.7333 4.73325 10.3733 5.18659 10.3733C5.63992 10.3733 5.99992 10.74 5.99992 11.1867C5.99992 11.6333 5.63992 12 5.18659 12ZM10.8133 12C10.3666 12 9.99992 11.64 9.99992 11.1867C9.99992 10.7333 10.3599 10.3733 10.8133 10.3733C11.2666 10.3733 11.6266 10.7333 11.6266 11.1867C11.6266 11.64 11.2666 12 10.8133 12ZM4.19325 9.33333L5.07992 6.66667H10.9333L11.8199 9.33333H4.19325Z" fill="#C9EBFF"/>
<path d="M7.21992 2.00001C6.93992 1.22001 6.19992 0.666672 5.33325 0.666672C4.22659 0.666672 3.33325 1.56001 3.33325 2.66667C3.33325 3.76667 4.22659 4.66667 5.33325 4.66667C6.19992 4.66667 6.93992 4.10667 7.21992 3.33334H10.6666V4.66667H11.9999V3.33334H12.6666V2.00001H7.21992ZM5.33325 3.33334C4.96659 3.33334 4.66659 3.03334 4.66659 2.66667C4.66659 2.3 4.96659 2.00001 5.33325 2.00001C5.69992 2.00001 5.99992 2.3 5.99992 2.66667C5.99992 3.03334 5.69992 3.33334 5.33325 3.33334Z" fill="#C9EBFF"/>
</svg>
