<svg width="16" height="16" viewBox="0 0 16 16" fill="none" xmlns="http://www.w3.org/2000/svg">
<path d="M8 3.5C8.825 3.5 9.5 4.175 9.5 5C9.5 5.825 8.825 6.5 8 6.5C7.175 6.5 6.5 5.825 6.5 5C6.5 4.175 7.175 3.5 8 3.5ZM8 10.25C10.025 10.25 12.35 11.2175 12.5 11.75V12.5H3.5V11.7575C3.65 11.2175 5.975 10.25 8 10.25ZM8 2C6.3425 2 5 3.3425 5 5C5 6.6575 6.3425 8 8 8C9.6575 8 11 6.6575 11 5C11 3.3425 9.6575 2 8 2ZM8 8.75C5.9975 8.75 2 9.755 2 11.75V14H14V11.75C14 9.755 10.0025 8.75 8 8.75Z" fill="#0E64BF"/>
</svg>
