<svg width="16" height="16" viewBox="0 0 16 16" fill="none" xmlns="http://www.w3.org/2000/svg">
<path d="M12.6667 2H9.88C9.6 1.22667 8.86667 0.666668 8 0.666668C7.13333 0.666668 6.4 1.22667 6.12 2H3.33333C2.6 2 2 2.6 2 3.33333V12.6667C2 13.4 2.6 14 3.33333 14H12.6667C13.4 14 14 13.4 14 12.6667V3.33333C14 2.6 13.4 2 12.6667 2ZM8 2C8.36667 2 8.66667 2.3 8.66667 2.66667C8.66667 3.03333 8.36667 3.33333 8 3.33333C7.63333 3.33333 7.33333 3.03333 7.33333 2.66667C7.33333 2.3 7.63333 2 8 2ZM9.33333 11.3333H4.66667V10H9.33333V11.3333ZM11.3333 8.66667H4.66667V7.33333H11.3333V8.66667ZM11.3333 6H4.66667V4.66667H11.3333V6Z" fill="#C9EBFF"/>
</svg>
