<svg width="16" height="16" viewBox="0 0 16 16" fill="none" xmlns="http://www.w3.org/2000/svg">
<path d="M8.66659 2C5.35325 2 2.66659 4.68667 2.66659 8H1.33325L3.33325 10L5.33325 8H3.99992C3.99992 5.42 6.08659 3.33333 8.66659 3.33333C11.2466 3.33333 13.3333 5.42 13.3333 8C13.3333 10.58 11.2466 12.6667 8.66659 12.6667C7.37992 12.6667 6.21325 12.14 5.37325 11.2933L4.42659 12.24C5.51325 13.3267 7.00659 14 8.66659 14C11.9799 14 14.6666 11.3133 14.6666 8C14.6666 4.68667 11.9799 2 8.66659 2Z" fill="#C9EBFF"/>
<path d="M10.717 5.96553C10.6578 5.80673 10.4919 5.69369 10.2963 5.69369H7.03704C6.84148 5.69369 6.67852 5.80673 6.6163 5.96553L6 7.5777V9.73086C6 9.87889 6.13333 10 6.2963 10H6.59259C6.75556 10 6.88889 9.87889 6.88889 9.73086V9.46171H10.4444V9.73086C10.4444 9.87889 10.5778 10 10.7407 10H11.037C11.2 10 11.3333 9.87889 11.3333 9.73086V7.5777L10.717 5.96553ZM7.33333 8.65428C7.08741 8.65428 6.88889 8.47395 6.88889 8.25056C6.88889 8.02717 7.08741 7.84685 7.33333 7.84685C7.57926 7.84685 7.77778 8.02717 7.77778 8.25056C7.77778 8.47395 7.57926 8.65428 7.33333 8.65428ZM10 8.65428C9.75407 8.65428 9.55556 8.47395 9.55556 8.25056C9.55556 8.02717 9.75407 7.84685 10 7.84685C10.2459 7.84685 10.4444 8.02717 10.4444 8.25056C10.4444 8.47395 10.2459 8.65428 10 8.65428ZM6.83259 7.03941L7.14074 6.23198H10.1896L10.4978 7.03941H6.83259Z" fill="#C9EBFF"/>
</svg>
