<svg width="150" height="48" viewBox="0 0 150 48" fill="none" xmlns="http://www.w3.org/2000/svg"><path d="M138.801 47.056C137.364 47.056 136.086 46.7508 134.966 46.1404C133.846 45.53 132.958 44.6145 132.303 43.3937C131.67 42.1526 131.353 40.586 131.353 38.6938C131.353 36.7812 131.68 35.2146 132.335 33.9938C133.011 32.7731 133.909 31.8677 135.029 31.2776C136.17 30.6673 137.428 30.3621 138.801 30.3621C140.47 30.3621 141.939 30.708 143.207 31.3997C144.496 32.0915 145.51 33.0579 146.25 34.299C147.01 35.5401 147.391 37.0051 147.391 38.6938C147.391 40.3825 147.01 41.8474 146.25 43.0885C145.51 44.3296 144.496 45.3062 143.207 46.0183C141.939 46.7101 140.47 47.056 138.801 47.056ZM129.419 46.8424L129.356 23.8162H133.318L133.381 34.3296L133.064 38.6633L133.191 42.997V46.8424H129.419ZM138.357 43.7905C139.308 43.7905 140.153 43.587 140.893 43.1801C141.654 42.7732 142.256 42.1831 142.7 41.41C143.143 40.6368 143.365 39.7314 143.365 38.6938C143.365 37.6358 143.143 36.7304 142.7 35.9776C142.256 35.2044 141.654 34.6144 140.893 34.2075C140.153 33.8006 139.308 33.5971 138.357 33.5971C137.406 33.5971 136.551 33.8006 135.79 34.2075C135.029 34.6144 134.427 35.2044 133.983 35.9776C133.54 36.7304 133.318 37.6358 133.318 38.6938C133.318 39.7314 133.54 40.6368 133.983 41.41C134.427 42.1831 135.029 42.7732 135.79 43.1801C136.551 43.587 137.406 43.7905 138.357 43.7905Z" fill="#27282F"/><path d="M106.76 42.2098V39.4668L118.192 23.8162H122.475L111.196 39.4668L109.194 38.8572H126.294V42.2098H106.76ZM118.591 47.0559V42.2098L118.714 38.8572L118.665 23.8162H122.424L122.473 47.0559H118.591Z" fill="#27282F"/><path d="M97.7137 47.0564C95.9363 47.0564 94.3494 46.6989 92.9529 45.9838C91.5776 45.2483 90.4985 44.2472 89.7156 42.9805C88.9328 41.7139 88.5413 40.2735 88.5413 38.6595C88.5413 37.0251 88.9328 35.5848 89.7156 34.3385C90.4985 33.0718 91.5776 32.0809 92.9529 31.3659C94.3494 30.6508 95.9363 30.2933 97.7137 30.2933C99.364 30.2933 100.813 30.6202 102.062 31.274C103.331 31.9073 104.294 32.8471 104.95 34.0933L101.903 35.8095C101.395 35.0331 100.771 34.4611 100.031 34.0933C99.3112 33.7256 98.5283 33.5417 97.6819 33.5417C96.7086 33.5417 95.8305 33.746 95.0476 34.1546C94.2648 34.5632 93.6512 35.1557 93.2068 35.9321C92.7625 36.688 92.5403 37.5971 92.5403 38.6595C92.5403 39.7219 92.7625 40.6413 93.2068 41.4176C93.6512 42.1735 94.2648 42.7558 95.0476 43.1644C95.8305 43.573 96.7086 43.7773 97.6819 43.7773C98.5283 43.7773 99.3112 43.5935 100.031 43.2257C100.771 42.858 101.395 42.2859 101.903 41.5096L104.95 43.2257C104.294 44.4515 103.331 45.4015 102.062 46.0757C100.813 46.7295 99.364 47.0564 97.7137 47.0564Z" fill="#27282F"/><path d="M77.1958 47.0564C75.4692 47.0564 73.9321 46.6989 72.5845 45.9838C71.2369 45.2483 70.1736 44.2472 69.3945 42.9805C68.6155 41.7139 68.2259 40.2735 68.2259 38.6595C68.2259 37.0251 68.6155 35.5848 69.3945 34.3385C70.1736 33.0718 71.2369 32.0809 72.5845 31.3659C73.9321 30.6508 75.4692 30.2933 77.1958 30.2933C78.9435 30.2933 80.4911 30.6508 81.8387 31.3659C83.2073 32.0809 84.2707 33.0616 85.0287 34.3079C85.8078 35.5541 86.1973 37.0047 86.1973 38.6595C86.1973 40.2735 85.8078 41.7139 85.0287 42.9805C84.2707 44.2472 83.2073 45.2483 81.8387 45.9838C80.4911 46.6989 78.9435 47.0564 77.1958 47.0564ZM77.1958 43.7773C78.1644 43.7773 79.0277 43.573 79.7857 43.1644C80.5437 42.7558 81.1333 42.1633 81.5544 41.387C81.9966 40.6106 82.2177 39.7015 82.2177 38.6595C82.2177 37.5971 81.9966 36.688 81.5544 35.9321C81.1333 35.1557 80.5437 34.5632 79.7857 34.1546C79.0277 33.746 78.1749 33.5417 77.2274 33.5417C76.2588 33.5417 75.3955 33.746 74.6375 34.1546C73.9005 34.5632 73.311 35.1557 72.8688 35.9321C72.4266 36.688 72.2055 37.5971 72.2055 38.6595C72.2055 39.7015 72.4266 40.6106 72.8688 41.387C73.311 42.1633 73.9005 42.7558 74.6375 43.1644C75.3955 43.573 76.2483 43.7773 77.1958 43.7773Z" fill="#27282F"/><path d="M55.702 47.056C54.072 47.056 52.6009 46.7101 51.2885 46.0183C49.9973 45.3062 48.9812 44.3296 48.2403 43.0885C47.4995 41.8474 47.129 40.3825 47.129 38.6938C47.129 37.0051 47.4995 35.5401 48.2403 34.299C48.9812 33.0579 49.9973 32.0915 51.2885 31.3997C52.6009 30.708 54.072 30.3621 55.702 30.3621C57.1202 30.3621 58.3903 30.6673 59.5121 31.2776C60.634 31.8677 61.5231 32.7731 62.1793 33.9938C62.8355 35.2146 63.1636 36.7812 63.1636 38.6938C63.1636 40.586 62.8461 42.1526 62.211 43.3937C61.576 44.6145 60.6975 45.53 59.5756 46.1404C58.4538 46.7508 57.1625 47.056 55.702 47.056ZM56.1782 43.7905C57.1308 43.7905 57.9775 43.587 58.7183 43.1801C59.4804 42.7732 60.0837 42.1831 60.5282 41.41C60.9939 40.6368 61.2267 39.7314 61.2267 38.6938C61.2267 37.6358 60.9939 36.7304 60.5282 35.9776C60.0837 35.2044 59.4804 34.6144 58.7183 34.2075C57.9775 33.8006 57.1308 33.5971 56.1782 33.5971C55.2257 33.5971 54.3684 33.8006 53.6063 34.2075C52.8655 34.6144 52.2622 35.2044 51.7965 35.9776C51.352 36.7304 51.1297 37.6358 51.1297 38.6938C51.1297 39.7314 51.352 40.6368 51.7965 41.41C52.2622 42.1831 52.8655 42.7732 53.6063 43.1801C54.3684 43.587 55.2257 43.7905 56.1782 43.7905ZM61.322 46.8424V42.997L61.4807 38.6633L61.1632 34.3296V23.8162H65.1004V46.8424H61.322Z" fill="#27282F"/><path fill-rule="evenodd" clip-rule="evenodd" d="M30.4348 47.8412C35.8376 47.8412 40.2174 43.46 40.2174 38.0555C40.2174 36.7277 39.9531 35.4617 39.4741 34.3072C39.4198 34.1763 39.2494 34.147 39.1514 34.2495L30.8496 42.9352C30.6107 43.1964 30.2743 43.3486 29.9192 43.3563C29.5641 43.3641 29.2214 43.2267 28.9712 42.9762L24.8664 39.0761C24.4318 38.6632 24.4227 37.9736 24.8461 37.5501L25.7652 36.6309C26.1877 36.2083 26.8755 36.2164 27.2886 36.649L29.9192 39.4029L37.3849 31.4399C37.4574 31.3625 37.4571 31.2417 37.3824 31.1664C35.6098 29.3777 33.1516 28.2698 30.4348 28.2698C25.032 28.2698 20.6522 32.651 20.6522 38.0555C20.6522 43.46 25.032 47.8412 30.4348 47.8412Z" fill="url(#paint0_linear_568_1187)"/><path fill-rule="evenodd" clip-rule="evenodd" d="M34.7826 6.22039C34.7826 3.98597 32.9577 2.17462 30.7066 2.17462H15.4212L2.17395 15.3234V41.6209C2.17395 43.8553 3.99888 45.6666 6.25004 45.6666H19.8392C19.1721 44.739 18.6237 43.7201 18.2163 42.6323H6.25004C5.68725 42.6323 5.23102 42.1795 5.23102 41.6209V16.3348H14.4022C15.5278 16.3348 16.4403 15.4291 16.4403 14.3119V5.20895H30.7066C31.2693 5.20895 31.7256 5.66179 31.7256 6.22039V25.071C32.7871 25.1753 33.8113 25.4069 34.7826 25.7504V6.22039ZM9.78265 23.1052C9.78265 22.3545 10.3911 21.746 11.1418 21.746H25.8148C26.5654 21.746 27.174 22.3545 27.174 23.1052C27.174 23.8558 26.5654 24.4643 25.8148 24.4643H11.1418C10.3911 24.4643 9.78265 23.8558 9.78265 23.1052ZM11.1418 29.3571C10.3911 29.3571 9.78265 29.9656 9.78265 30.7163C9.78265 31.4669 10.3911 32.0754 11.1418 32.0754H18.2061C18.9568 32.0754 19.5653 31.4669 19.5653 30.7163C19.5653 29.9656 18.9568 29.3571 18.2061 29.3571H11.1418Z" fill="url(#paint1_linear_568_1187)"/><defs><linearGradient id="paint0_linear_568_1187" x1="35.3261" y1="26.0952" x2="17.99" y2="46.0606" gradientUnits="userSpaceOnUse"><stop stop-color="#0EDBB5"/><stop offset="1" stop-color="#7BE727"/></linearGradient><linearGradient id="paint1_linear_568_1187" x1="-0.403812" y1="-17.0622" x2="37.3706" y2="-15.463" gradientUnits="userSpaceOnUse"><stop stop-color="#1F7ED4"/><stop offset="1" stop-color="#075CB9"/></linearGradient></defs></svg>