<svg width="16" height="16" viewBox="0 0 16 16" fill="none" xmlns="http://www.w3.org/2000/svg">
<path fill-rule="evenodd" clip-rule="evenodd" d="M1.0013 7.23851C1.00195 7.59028 1.0026 7.94205 1.0026 8.29382V12.6777C1.01507 14.0085 2.01009 14.9978 3.34959 14.9978C6.22301 15.0007 9.09642 15.0007 11.9698 14.9978C13.2904 14.9963 14.3014 14.0209 14.3128 12.7109C14.3295 10.9969 14.3295 9.28305 14.3128 7.56938C14.2999 6.2752 13.3009 5.29836 11.9968 5.29539C10.2004 5.29076 8.40508 5.2923 6.61017 5.29385C5.71285 5.29462 4.81562 5.29539 3.91839 5.29539C3.73192 5.2948 3.54612 5.27318 3.36455 5.23093C2.68458 5.07374 2.2105 4.44649 2.21299 3.72601C2.21197 3.39188 2.32611 3.06749 2.53638 2.80691C2.74665 2.54633 3.04035 2.3653 3.36854 2.29398C3.60055 2.24776 3.83682 2.22599 4.07343 2.22903H12.1144C12.131 2.22903 12.1476 2.2287 12.1643 2.22837C12.1975 2.2277 12.2307 2.22704 12.264 2.22903C12.8053 2.25481 13.1458 2.58455 13.1653 3.12156C13.1725 3.31289 13.1663 3.50464 13.1601 3.6964C13.1569 3.79538 13.1537 3.89435 13.1523 3.99328C13.1486 4.07337 13.1515 4.15363 13.1608 4.23327C13.2076 4.53078 13.4659 4.72119 13.7779 4.70681C14.09 4.69243 14.3248 4.48814 14.3343 4.19063C14.3548 3.76457 14.3536 3.33776 14.3308 2.91182C14.2976 2.46331 14.1155 2.0385 13.8131 1.70415C13.5107 1.36981 13.1052 1.14489 12.6603 1.06476C12.3654 1.01688 12.0667 0.995472 11.7679 1.0008C9.49274 1.0008 7.21754 1.00327 4.94233 1.00823C4.85356 1.00842 4.76466 1.00827 4.67568 1.00813C4.29152 1.00749 3.90598 1.00686 3.52307 1.03303C2.34559 1.11335 1.30769 2.01184 1.09932 3.16222C1.01565 3.62093 1.01125 4.09662 1.00692 4.56536C1.00681 4.57698 1.0067 4.58859 1.00659 4.6002C0.998047 5.47964 0.999674 6.35907 1.0013 7.23851ZM2.22835 6.51535C2.22966 6.49559 2.23111 6.47354 2.23243 6.44775H2.49215C3.32859 6.44775 4.16502 6.44882 5.00146 6.44989C7.28769 6.45281 9.57393 6.45572 11.8602 6.43685C12.6363 6.42941 13.25 6.97187 13.1294 7.86739H12.9175C12.5913 7.86739 12.2651 7.86667 11.9389 7.86595C11.2865 7.86452 10.6342 7.86309 9.98178 7.86739C9.67118 7.8667 9.36364 7.92842 9.07761 8.04884C8.79158 8.16926 8.53294 8.3459 8.31721 8.56816C8.10149 8.79043 7.93311 9.05374 7.82218 9.34231C7.71126 9.63088 7.66006 9.93876 7.67168 10.2475C7.70558 11.38 8.67967 12.3935 9.81876 12.4292C10.5563 12.4519 11.2948 12.4482 12.0333 12.4445C12.3111 12.443 12.5889 12.4416 12.8667 12.4416C13.1234 12.4416 13.1234 12.4416 13.1184 12.6896C13.1049 13.3709 12.6294 13.839 11.9419 13.839H3.39695C2.7115 13.839 2.22445 13.3694 2.22445 12.6881C2.22246 11.3354 2.22312 9.9827 2.22379 8.63001C2.22412 7.95366 2.22445 7.27732 2.22445 6.60097C2.22445 6.5744 2.2262 6.54802 2.22835 6.51535ZM13.0581 9.05793C13.0762 9.06178 13.0938 9.06777 13.1104 9.07578V11.2402C13.0902 11.2416 13.0709 11.2433 13.0522 11.2449C13.0124 11.2484 12.9754 11.2516 12.9384 11.2516C12.615 11.2516 12.2914 11.2521 11.9676 11.2527C11.3198 11.2538 10.6715 11.2549 10.0237 11.2516C9.38855 11.2481 8.89104 10.7939 8.8706 10.1984C8.85016 9.60288 9.32574 9.07181 9.93791 9.0619C10.6623 9.04981 11.387 9.05264 12.1116 9.05547C12.4271 9.0567 12.7426 9.05793 13.0581 9.05793ZM4.5756 4.25511H7.67174C8.70362 4.2562 9.73736 4.25606 10.773 4.25471C11.0901 4.2543 11.2897 4.14716 11.3779 3.93982C11.5274 3.5899 11.2507 3.27991 10.7811 3.27991H5.04425C4.99675 3.27991 4.94923 3.2797 4.9017 3.2795C4.75908 3.27889 4.61639 3.27828 4.47427 3.28317C4.35896 3.28496 4.24743 3.31654 4.15618 3.37325C4.06494 3.42996 3.99882 3.50878 3.96761 3.59805C3.82524 3.95163 4.10238 4.25511 4.5756 4.25511Z" fill="#0E64BF"/>
</svg>
