<svg width="16" height="16" viewBox="0 0 16 16" fill="none" xmlns="http://www.w3.org/2000/svg">
<path d="M11.3333 1.33333H4.66659C3.93325 1.33333 3.33325 1.93333 3.33325 2.66666V3.99999C3.33325 4.73333 3.93325 5.33333 4.66659 5.33333H11.3333C12.0666 5.33333 12.6666 4.73333 12.6666 3.99999V2.66666C12.6666 1.93333 12.0666 1.33333 11.3333 1.33333ZM11.3333 3.99999H4.66659V2.66666H11.3333V3.99999ZM13.3333 14.6667H2.66659C1.93325 14.6667 1.33325 14.0667 1.33325 13.3333V12.6667H14.6666V13.3333C14.6666 14.0667 14.0666 14.6667 13.3333 14.6667ZM12.3533 6.79333C12.1399 6.31333 11.6599 6 11.1333 6H4.86659C4.33992 6 3.85992 6.31333 3.64659 6.79333L1.33325 12H14.6666L12.3533 6.79333ZM6.33325 10.6667H5.66659C5.47992 10.6667 5.33325 10.52 5.33325 10.3333C5.33325 10.1467 5.47992 10 5.66659 10H6.33325C6.51992 10 6.66659 10.1467 6.66659 10.3333C6.66659 10.52 6.51992 10.6667 6.33325 10.6667ZM6.33325 9.33333H5.66659C5.47992 9.33333 5.33325 9.18666 5.33325 9C5.33325 8.81333 5.47992 8.66666 5.66659 8.66666H6.33325C6.51992 8.66666 6.66659 8.81333 6.66659 9C6.66659 9.18666 6.51992 9.33333 6.33325 9.33333ZM6.33325 8H5.66659C5.47992 8 5.33325 7.85333 5.33325 7.66666C5.33325 7.48 5.47992 7.33333 5.66659 7.33333H6.33325C6.51992 7.33333 6.66659 7.48 6.66659 7.66666C6.66659 7.85333 6.51992 8 6.33325 8ZM8.33325 10.6667H7.66659C7.47992 10.6667 7.33325 10.52 7.33325 10.3333C7.33325 10.1467 7.47992 10 7.66659 10H8.33325C8.51992 10 8.66659 10.1467 8.66659 10.3333C8.66659 10.52 8.51992 10.6667 8.33325 10.6667ZM8.33325 9.33333H7.66659C7.47992 9.33333 7.33325 9.18666 7.33325 9C7.33325 8.81333 7.47992 8.66666 7.66659 8.66666H8.33325C8.51992 8.66666 8.66659 8.81333 8.66659 9C8.66659 9.18666 8.51992 9.33333 8.33325 9.33333ZM8.33325 8H7.66659C7.47992 8 7.33325 7.85333 7.33325 7.66666C7.33325 7.48 7.47992 7.33333 7.66659 7.33333H8.33325C8.51992 7.33333 8.66659 7.48 8.66659 7.66666C8.66659 7.85333 8.51992 8 8.33325 8ZM10.3333 10.6667H9.66659C9.47992 10.6667 9.33325 10.52 9.33325 10.3333C9.33325 10.1467 9.47992 10 9.66659 10H10.3333C10.5199 10 10.6666 10.1467 10.6666 10.3333C10.6666 10.52 10.5199 10.6667 10.3333 10.6667ZM10.3333 9.33333H9.66659C9.47992 9.33333 9.33325 9.18666 9.33325 9C9.33325 8.81333 9.47992 8.66666 9.66659 8.66666H10.3333C10.5199 8.66666 10.6666 8.81333 10.6666 9C10.6666 9.18666 10.5199 9.33333 10.3333 9.33333ZM10.3333 8H9.66659C9.47992 8 9.33325 7.85333 9.33325 7.66666C9.33325 7.48 9.47992 7.33333 9.66659 7.33333H10.3333C10.5199 7.33333 10.6666 7.48 10.6666 7.66666C10.6666 7.85333 10.5199 8 10.3333 8Z" fill="#C9EBFF"/>
</svg>
