<svg width="16" height="16" viewBox="0 0 16 16" fill="none" xmlns="http://www.w3.org/2000/svg">
<path d="M12.6133 4.00667C12.48 3.61334 12.1067 3.33334 11.6667 3.33334H4.33333C3.89333 3.33334 3.52667 3.61334 3.38667 4.00667L2 8V13.3333C2 13.7 2.3 14 2.66667 14H3.33333C3.7 14 4 13.7 4 13.3333V12.6667H12V13.3333C12 13.7 12.3 14 12.6667 14H13.3333C13.7 14 14 13.7 14 13.3333V8L12.6133 4.00667ZM5 10.6667C4.44667 10.6667 4 10.22 4 9.66667C4 9.11334 4.44667 8.66667 5 8.66667C5.55333 8.66667 6 9.11334 6 9.66667C6 10.22 5.55333 10.6667 5 10.6667ZM11 10.6667C10.4467 10.6667 10 10.22 10 9.66667C10 9.11334 10.4467 8.66667 11 8.66667C11.5533 8.66667 12 9.11334 12 9.66667C12 10.22 11.5533 10.6667 11 10.6667ZM3.87333 6.66667L4.56667 4.66667H11.4267L12.12 6.66667H3.87333Z" fill="#C9EBFF"/>
</svg>
