<svg width="16" height="16" viewBox="0 0 16 16" fill="none" xmlns="http://www.w3.org/2000/svg">
<path d="M13.3334 5.33332H11.3334V2.66666H2.00008C1.26675 2.66666 0.666748 3.26666 0.666748 3.99999V11.3333H2.00008C2.00008 12.44 2.89341 13.3333 4.00008 13.3333C5.10675 13.3333 6.00008 12.44 6.00008 11.3333H10.0001C10.0001 12.44 10.8934 13.3333 12.0001 13.3333C13.1067 13.3333 14.0001 12.44 14.0001 11.3333H15.3334V7.99999L13.3334 5.33332ZM4.00008 12.3333C3.44675 12.3333 3.00008 11.8867 3.00008 11.3333C3.00008 10.78 3.44675 10.3333 4.00008 10.3333C4.55341 10.3333 5.00008 10.78 5.00008 11.3333C5.00008 11.8867 4.55341 12.3333 4.00008 12.3333ZM13.0001 6.33332L14.3067 7.99999H11.3334V6.33332H13.0001ZM12.0001 12.3333C11.4467 12.3333 11.0001 11.8867 11.0001 11.3333C11.0001 10.78 11.4467 10.3333 12.0001 10.3333C12.5534 10.3333 13.0001 10.78 13.0001 11.3333C13.0001 11.8867 12.5534 12.3333 12.0001 12.3333Z" fill="#C9EBFF"/>
</svg>
